<?xml version="1.0" encoding="utf-8"?>
<!-- Generator: Adobe Illustrator 16.0.0, SVG Export Plug-In . SVG Version: 6.00 Build 0)  -->
<!DOCTYPE svg PUBLIC "-//W3C//DTD SVG 1.1//EN" "http://www.w3.org/Graphics/SVG/1.1/DTD/svg11.dtd">
<svg version="1.1" id="Layer_1" xmlns="http://www.w3.org/2000/svg" xmlns:xlink="http://www.w3.org/1999/xlink" x="0px" y="0px"
	 width="48px" height="48px" viewBox="0 0 48 48" enable-background="new 0 0 48 48" xml:space="preserve">
<path fill="#333333" d="M18,12h3.003v9c0,1.659,1.344,3,3,3c1.659,0,3-1.341,3-3v-9H30c1.212,0,2.311-0.732,2.771-1.851
	c0.463-1.122,0.205-2.415-0.65-3.27l-6-6C25.536,0.294,24.768,0,24,0c-0.768,0-1.536,0.294-2.121,0.879l-6,6
	c-0.858,0.855-1.113,2.148-0.651,3.27C15.69,11.268,16.788,12,18,12z M39,12h-0.543c-0.055,0.147-0.084,0.294-0.145,0.438
	C37.314,14.853,36,16.656,33,17.49V18h6c0.732,0,1.383,0.297,1.904,0.732L24,30L7.098,18.732C7.62,18.297,8.265,18,9,18h6v-0.51
	c-3-0.831-4.317-2.634-5.316-5.049C9.624,12.3,9.588,12.147,9.537,12H9c-4.971,0-9,4.032-9,9v18c0,4.971,4.029,9,9,9h30
	c4.971,0,9-4.029,9-9V21C48,16.032,43.971,12,39,12z M42,36l-9-3l8.121,8.121C40.578,41.664,39.828,42,39,42H9
	c-0.828,0-1.578-0.336-2.121-0.879L15,33l-9,3V24l18,12l18-12V36z"/>
</svg>
